<svg data-v-0dd9719b="" version="1.0" xmlns="http://www.w3.org/2000/svg" xmlns:xlink="http://www.w3.org/1999/xlink" width="100%" height="100%" viewBox="0 0 340.000000 250.000000" preserveAspectRatio="xMidYMid meet" color-interpolation-filters="sRGB" style="margin: auto;"> <rect data-v-0dd9719b="" x="0" y="0" width="100%" height="100%" fill="#fff" fill-opacity="1" class="background"></rect> <rect data-v-0dd9719b="" x="0" y="0" width="100%" height="100%" fill="url(#watermark)" fill-opacity="1" class="watermarklayer"></rect> <g data-v-0dd9719b="" fill="#333" class="icon-text-wrapper icon-svg-group iconsvg" transform="translate(48.98784637451172,94.81678772031336)"><g class="iconsvg-imagesvg" transform="translate(0,0)"><g><rect fill="#333" fill-opacity="0" stroke-width="2" x="0" y="0" width="60" height="60.366424194862816" class="image-rect"></rect> <svg x="0" y="0" width="60" height="60.366424194862816" filtersec="colorsb1551328879" class="image-svg-svg primary" style="overflow: visible;"><svg xmlns="http://www.w3.org/2000/svg" viewBox="0.009033550508320332 0.013148295693099499 95.22673034667969 95.8085708618164"><defs><linearGradient id="a8b9dc4c3-5a3a-40f1-a810-76b3c2d584dc" x1="-1406.56" y1="958.63" x2="-1394.89" y2="958.63" gradientTransform="matrix(0 -8.65 8.65 0 -8242.05 -12071.24)" gradientUnits="userSpaceOnUse"><stop offset="0" stop-color="#6d9d4d"></stop><stop offset="1" stop-color="#b2cd49"></stop></linearGradient></defs><path d="M10.67 78c-2.87-10.91.55-20.7 6.22-26.53 7.55-7.85 18.5-10.2 27.06-13.12 8.85-3 18.12-6.14 23.15-14.82 3.84-6.62 2.87-16-2.23-20.4A47.87 47.87 0 0 0 10.67 78z" fill="#36435c"></path><path d="M94.76 57.89c-8.92 9.52-23.91 8.39-36.7 5.35-9.69-2.32-20.15-6.31-29.28-1.14-4.34 2.45-8 6.59-8.2 13.93-.13 4.41 1.27 9.53 7 15.23a47.83 47.83 0 0 0 67.18-33.37z" fill="#36435c"></path><path d="M47.1 42.73c8.62 1.4 21.26 1.9 29.44-2.19 8-4 12.3-12.37 6.8-24.46 9.41 10.86 8.64 24.2-2.83 30.6-12.29 6.87-29.32-.9-39.68-1.37-7.39 1.77-15.44 4.18-20.43 9.55-7 7.52-12.56 24.2 1.05 32.92-8.33-8-5.61-22.37 3-28.86 10.71-8.09 22.9-4 34.71-1.54 6.23 1.28 14.44 2.86 20.77 1.66 14.94-2.86 17.3-16 14-28.75C91.72 21.76 83.74 11.87 73 7.19c7.16 14.3-2.12 32.07-25.9 35.54z" fill="url(#a8b9dc4c3-5a3a-40f1-a810-76b3c2d584dc)"></path></svg></svg> <!----></g></g> <g transform="translate(67,1.8209075927734375)"><g data-gra="path-name" fill-rule="" class="tp-name iconsvg-namesvg" transform="translate(0,0)"><g transform="scale(1)"><g><path d="M2.72 3.52L2.72 3.52Q2.9 3.69 3.14 3.63 3.38 3.56 4.53 2.99L4.53 2.99Q12.04-0.92 16.52-6.37L16.52-6.37Q17.18-7.21 17.47-7.51 17.75-7.82 18.11-7.87 18.46-7.91 18.7-7.62 18.94-7.34 19.42-6.59L19.42-6.59Q21.36-3.65 22.1-0.7L22.1-0.7Q22.37 0.31 22.52 0.55 22.68 0.79 23.25 1.05L23.25 1.05Q24.83 1.89 25.93 0.68 27.03-0.53 26.54-2.5L26.54-2.5Q25.66-6.15 20.13-8.35L20.13-8.35Q18.98-8.79 18.92-9.21 18.85-9.62 19.73-11.34L19.73-11.34Q21.31-14.63 22.28-18.63L22.28-18.63Q22.98-21.53 23.38-21.58L23.38-21.58Q23.69-21.58 24.04-19.82L24.04-19.82Q27.2-4.04 37.75 3.12L37.75 3.12Q38.36 3.56 38.58 3.56 38.8 3.56 38.89 3.16L38.89 3.16Q39.16 2.07 40.01 1.19 40.87 0.31 41.97 0L41.97 0Q42.45-0.13 42.6-0.29 42.76-0.44 42.56-0.64 42.36-0.83 41.84-1.1L41.84-1.1Q35.11-4.44 30.72-9.69 26.32-14.94 24.61-21.62L24.61-21.62Q24.21-23.12 24.3-23.29L24.3-23.29Q24.48-23.86 27.16-23.95L27.16-23.95Q27.82-23.95 33.57-23.95L33.57-23.95Q34.15-23.95 35.11-23.95L35.11-23.95Q40.65-23.95 41.59-24.02 42.54-24.08 42.58-24.52L42.58-24.52Q42.58-24.57 42.58-24.61L42.58-24.61Q42.58-24.87 41.66-25.8 40.74-26.72 39.55-27.6L39.55-27.6Q38.14-28.7 37.79-28.67 37.44-28.65 36.39-27.25L36.39-27.25Q36.21-27.03 35.99-26.67L35.99-26.67Q35.2-25.62 34.67-25.4L34.67-25.4Q33.97-25.18 30.41-25.18L30.41-25.18Q29.62-25.18 29.14-25.18L29.14-25.18Q28.83-25.18 28.26-25.18L28.26-25.18Q24.3-25.22 23.82-25.53L23.82-25.53Q23.38-25.8 23.47-27.11L23.47-27.11Q23.51-27.42 23.51-27.6L23.51-27.6Q23.51-27.77 23.73-32.04L23.73-32.04Q23.82-34.8 23.95-35.46 24.08-36.12 24.52-36.43L24.52-36.43Q25.27-36.91 23.6-37.35L23.6-37.35Q22.02-37.84 19.42-37.88L19.42-37.88Q18.85-37.92 18.81-37.75L18.81-37.75Q18.76-37.62 18.94-35.68L18.94-35.68Q19.29-31.86 19.14-28.81 18.98-25.75 18.46-25.4L18.46-25.4Q18.19-25.22 11.78-25.22 5.36-25.22 3.56-25.4L3.56-25.4Q2.55-25.49 2.46-25.38 2.37-25.27 2.77-24.39L2.77-24.39Q3.12-23.55 3.32-23.44 3.52-23.33 4.35-23.47L4.35-23.47Q7.03-23.86 12.74-23.91L12.74-23.91Q17.31-23.95 17.97-23.73L17.97-23.73Q18.76-23.47 18.63-22.24L18.63-22.24Q18.63-22.02 18.24-19.95L18.24-19.95Q16.92-12.7 13.38-7.38 9.84-2.07 3.21 2.59L3.21 2.59Q2.46 3.16 2.72 3.52ZM67.24 3.08L67.24 3.08Q67.32 3.74 67.5 3.8 67.68 3.87 68.69 3.65L68.69 3.65Q71.72 3.12 72.47 1.41L72.47 1.41Q72.82 0.62 72.88-0.35 72.95-1.32 72.99-6.2L72.99-6.2Q72.99-6.99 72.99-8.31L72.99-8.31Q72.99-12.08 73.34-12.61L73.34-12.61Q73.61-13.01 74.88-12.96L74.88-12.96Q75.37-12.96 75.67-12.96L75.67-12.96Q77.39-12.96 77.89-12.74 78.4-12.52 78.4-11.73L78.4-11.73Q78.4-10.81 80.64-11.51L80.64-11.51Q82.05-12 82.33-12.41 82.62-12.83 82.53-14.24L82.53-14.24Q81.83-24.83 83.32-25.66L83.32-25.66Q84.11-26.15 83.69-26.85 83.28-27.55 81.39-29L81.39-29Q80.33-29.84 80.02-29.82 79.72-29.79 79.1-28.96L79.1-28.96Q78.13-27.69 77.67-27.53 77.21-27.38 74.4-27.38L74.4-27.38Q71.94-27.38 71.46-27.44 70.97-27.51 70.84-27.82L70.84-27.82Q70.71-28.21 71.67-29.82 72.64-31.42 73.08-31.55L73.08-31.55Q73.52-31.64 73.61-31.88 73.7-32.12 73.39-32.3L73.39-32.3Q73.17-32.43 73.17-32.65L73.17-32.65Q73.21-32.96 73.56-33.05L73.56-33.05Q74.27-33.18 80.2-33.22L80.2-33.22Q86.66-33.27 87.06-33.44L87.06-33.44Q87.19-33.53 87.23-33.88 87.28-34.23 85.76-35.57 84.24-36.91 83.19-37.49L83.19-37.49Q82.79-37.75 82.51-37.55 82.22-37.35 81.52-36.39L81.52-36.39Q80.33-34.85 79.94-34.63L79.94-34.63Q79.54-34.45 68.03-34.45 56.51-34.45 55.9-34.63L55.9-34.63Q55.63-34.72 53.53-35.68L53.53-35.68Q51.42-36.69 51.33-36.43L51.33-36.43Q51.28-36.34 51.33-36.04L51.33-36.04Q51.59-33.75 51.64-27.6L51.64-27.6Q51.72-16 50.91-9.56 50.1-3.12 47.86 1.93L47.86 1.93Q47.29 3.34 47.37 3.43L47.37 3.43Q47.64 3.78 48.38 2.99L48.38 2.99Q52.38-1.32 53.92-7.38 55.46-13.45 55.55-25.09L55.55-25.09Q55.55-26.15 55.55-27.58 55.55-29 55.5-29.53 55.46-30.06 55.59-30.94 55.72-31.82 55.7-32.01 55.68-32.21 56.03-32.63 56.38-33.05 56.54-33.05 56.69-33.05 57.39-33.2 58.1-33.35 58.51-33.29 58.93-33.22 60.07-33.22 61.22-33.22 62.05-33.22L62.05-33.22Q62.62-33.22 63.59-33.22L63.59-33.22Q67.41-33.22 67.98-32.92L67.98-32.92Q68.51-32.56 68.38-31.07L68.38-31.07Q68.38-30.94 68.33-30.63L68.33-30.63Q68.29-30.15 68.25-29.84L68.25-29.84Q68.03-27.99 67.7-27.69 67.37-27.38 65.61-27.38L65.61-27.38Q64.07-27.38 63.57-27.49 63.06-27.6 61.3-28.34L61.3-28.34Q59.15-29.31 59.11-29L59.11-29Q59.06-28.96 59.11-28.78L59.11-28.78Q59.59-25.66 59.59-19.07L59.59-19.07Q59.59-16.79 59.37-12.13L59.37-12.13Q59.33-11.07 59.44-10.79 59.55-10.5 60.16-10.42L60.16-10.42Q61.04-10.28 61.02-9.54 61-8.79 59.94-6.77L59.94-6.77Q58.89-4.66 57.19-2.5 55.5-0.35 53.83 1.05L53.83 1.05Q53.13 1.67 53.26 1.89L53.26 1.89Q53.44 2.2 54.98 1.45L54.98 1.45Q57.66 0.09 59.77-1.56 61.88-3.21 64.78-6.28L64.78-6.28Q65.65-7.21 65.92-7.25L65.92-7.25Q66.97-7.38 65.96-8.04L65.96-8.04Q65.57-8.31 64.78-8.7L64.78-8.7Q63.76-9.18 63.24-9.51 62.71-9.84 62.51-10.15 62.31-10.46 62.45-10.68 62.58-10.9 63.02-11.21L63.02-11.21Q63.37-11.47 63.5-11.82L63.5-11.82Q63.68-12.66 64.05-12.81 64.42-12.96 66.23-12.96L66.23-12.96Q68.12-12.96 68.33-12.83L68.33-12.83Q68.91-12.57 68.95-10.46L68.95-10.46Q68.95-10.46 68.95-6.99L68.95-6.99Q68.95-6.46 68.95-5.58L68.95-5.58Q68.95-1.89 68.66-1.3 68.38-0.7 66.62-0.79L66.62-0.79Q66.18-0.83 65.96-0.83L65.96-0.83Q63.54-0.92 63.06-0.92 62.58-0.92 62.53-0.75L62.53-0.75Q62.53-0.48 63.76-0.26L63.76-0.26Q66.84 0.31 67.24 3.08ZM77.7-14.37L77.7-14.37Q77.34-14.19 70.93-14.22 64.51-14.24 64.16-14.41L64.16-14.41Q63.72-14.59 63.63-15.01 63.54-15.42 63.54-16.96L63.54-16.96Q63.54-18.81 63.68-19.03L63.68-19.03Q63.98-19.69 66.27-19.73L66.27-19.73Q66.62-19.73 70.93-19.73L70.93-19.73Q71.59-19.73 72.73-19.73L72.73-19.73Q76.99-19.73 77.7-19.49 78.4-19.25 78.35-17.67L78.35-17.67Q78.35-17.23 78.35-16.96L78.35-16.96Q78.35-15.42 78.24-15.01 78.13-14.59 77.7-14.37ZM77.87-21.18L77.87-21.18Q77.56-20.96 70.97-20.94 64.38-20.92 64.07-21.14L64.07-21.14Q63.46-21.49 63.5-23.55 63.54-25.62 64.16-25.93L64.16-25.93Q64.51-26.1 70.91-26.1 77.3-26.1 77.65-25.93L77.65-25.93Q78.35-25.62 78.44-23.62 78.53-21.62 77.87-21.18ZM83.85 1.41L83.85 1.41Q84.86 1.63 85.56 0.83 86.26 0.04 86.18-1.19L86.18-1.19Q86-3.43 83.74-5.41 81.47-7.38 77.61-8.66L77.61-8.66Q76.95-8.88 76.57-8.99 76.2-9.1 75.96-9.12 75.72-9.14 75.67-9.05 75.63-8.96 75.76-8.75 75.89-8.53 76.18-8.24 76.46-7.95 76.95-7.43L76.95-7.43Q80.42-3.82 82.18-0.31L82.18-0.31Q82.66 0.7 82.92 0.97 83.19 1.23 83.85 1.41ZM92.68 3.6L92.68 3.6Q92.86 3.78 93.05 3.71 93.25 3.65 94.44 3.08L94.44 3.08Q102.17-0.57 106.44-5.38 110.7-10.2 112.59-17.53L112.59-17.53Q113.2-19.95 113.64-20L113.64-20Q113.91-20.04 114.13-19.03L114.13-19.03Q116.98-4.53 127.35 2.72L127.35 2.72Q128.76 3.74 128.94 3.6L128.94 3.6Q129.02 3.52 129.16 3.08L129.16 3.08Q129.42 2.07 130.34 1.16 131.26 0.26 132.28-0.04L132.28-0.04Q133.2-0.31 132.76-0.66L132.76-0.66Q132.5-0.88 131.7-1.27L131.7-1.27Q117.86-7.95 114.61-21.18L114.61-21.18Q114.3-22.46 114.39-22.63L114.39-22.63Q114.65-23.12 117.82-23.16L117.82-23.16Q118.26-23.16 123.4-23.2L123.4-23.2Q129.68-23.25 130.89-23.31 132.1-23.38 132.32-23.69L132.32-23.69 132.36-23.73Q132.8-24.39 129.24-27.07L129.24-27.07Q127.84-28.17 127.49-28.06 127.13-27.95 125.68-25.97L125.68-25.97Q125.6-25.84 125.46-25.66L125.46-25.66Q124.85-24.79 124.26-24.63 123.66-24.48 120.72-24.48L120.72-24.48Q119.97-24.48 119.58-24.48L119.58-24.48Q119.18-24.48 118.52-24.48L118.52-24.48Q114.7-24.48 114.17-24.83L114.17-24.83Q113.73-25.09 113.82-26.5L113.82-26.5Q113.82-26.54 113.82-26.63L113.82-26.63Q113.86-26.94 113.86-27.07L113.86-27.07Q113.95-28.87 114.04-31.9L114.04-31.9Q114.08-34.8 114.19-35.44 114.3-36.08 114.79-36.43L114.79-36.43Q115.75-37 113.86-37.4L113.86-37.4Q112.9-37.62 111.05-37.79L111.05-37.79Q109.51-37.97 109.29-37.92 109.07-37.88 109.12-37.4L109.12-37.4Q109.69-33.18 109.53-29.05 109.38-24.92 108.63-24.61L108.63-24.61Q108.15-24.39 101.82-24.46 95.49-24.52 93.47-24.74L93.47-24.74Q92.68-24.83 92.68-24.65L92.68-24.65Q92.68-24.52 93.08-23.69L93.08-23.69Q93.52-22.85 93.78-22.76 94.04-22.68 95.58-22.9L95.58-22.9Q98.17-23.2 103.58-23.2L103.58-23.2Q107.53-23.2 108.19-23.14 108.85-23.07 108.94-22.63L108.94-22.63Q109.03-22.37 109.03-22.24L109.03-22.24Q109.12-21.93 108.65-19.51 108.19-17.09 107.75-15.51L107.75-15.51Q104.5-4.31 93.47 2.5L93.47 2.5Q92.72 2.94 92.57 3.14 92.42 3.34 92.68 3.6ZM137.15 3.74L137.15 3.74Q137.37 4.09 138.36 3.23 139.35 2.37 140.58 0.79 141.81-0.79 142.56-2.29L142.56-2.29Q145.33-7.73 145.63-16L145.63-16Q145.72-18.37 146.07-18.68 146.43-18.98 149.02-18.98L149.02-18.98Q151.26-18.94 151.66-18.68L151.66-18.68Q152.23-18.24 152.14-15.91L152.14-15.91Q152.09-15.6 152.01-13.8L152.01-13.8Q151.83-11.16 151.68-9.91 151.52-8.66 151.08-7.84 150.64-7.03 150.03-6.88 149.41-6.72 148.18-6.81L148.18-6.81Q146.47-6.9 146.21-6.88 145.94-6.86 145.94-6.64L145.94-6.64Q145.94-6.33 146.43-6.2L146.43-6.2Q147.7-5.76 148.18-5.32L148.18-5.32Q149.24-4.26 149.24-3.08L149.24-3.08Q149.24-2.11 151.17-2.59L151.17-2.59Q153.02-3.08 153.94-4.26 154.86-5.45 155.3-8L155.3-8Q155.7-10.28 156.01-16.79L156.01-16.79Q156.05-17.58 156.36-18.11 156.67-18.63 157.02-18.63L157.02-18.63Q157.32-18.63 157.46-18.83 157.59-19.03 157.5-19.31 157.41-19.6 157.15-19.91L157.15-19.91Q155.57-21.67 154.67-21.99 153.76-22.32 152.93-21.45L152.93-21.45Q152.01-20.52 151.57-20.39 151.13-20.26 148.89-20.26L148.89-20.26Q148.67-20.26 148.27-20.26L148.27-20.26Q146.38-20.26 146.05-20.61 145.72-20.96 145.72-23.12L145.72-23.12Q145.72-23.64 145.72-23.91L145.72-23.91Q145.72-26.5 145.77-26.67L145.77-26.67Q145.99-27.42 147.52-27.55L147.52-27.55Q147.83-27.55 152.23-27.55L152.23-27.55Q152.97-27.55 154.25-27.55L154.25-27.55Q157.63-27.6 158.23-27.27 158.82-26.94 158.99-24.96L158.99-24.96Q159.08-24.26 159.13-23.82L159.13-23.82Q159.96-16.48 162.38-10.28L162.38-10.28Q162.95-8.83 162.86-8.28 162.77-7.73 161.81-6.46L161.81-6.46Q157.98-1.32 152.84 1.98L152.84 1.98Q152.27 2.33 151.98 2.5 151.7 2.68 151.52 2.83 151.35 2.99 151.35 3.03 151.35 3.08 151.35 3.16L151.35 3.16Q151.48 3.52 152.53 3.08L152.53 3.08Q158.33 0.57 162.86-3.6L162.86-3.6Q164.14-4.83 164.62-4.9 165.1-4.97 165.72-4L165.72-4Q168.79 0.26 172.33 2.26 175.87 4.26 177.28 2.59L177.28 2.59Q177.8 1.93 176.88-0.09L176.88-0.09Q176.4-1.05 176.35-1.71 176.31-2.37 176.66-5.14L176.66-5.14Q177.06-8.13 176.97-8.31L176.97-8.31Q176.92-8.44 176.75-8.44 176.57-8.44 176.53-8.26L176.53-8.26Q175.83-6.28 175.36-5.25 174.9-4.22 174.42-3.56 173.94-2.9 173.39-2.99 172.84-3.08 172.2-3.52 171.56-3.96 170.55-4.97L170.55-4.97Q168.49-6.99 168.09-7.95 167.7-8.92 168.4-10.06L168.4-10.06Q170.68-13.67 172.62-18.28L172.62-18.28Q173.36-20.08 173.63-20.54 173.89-21.01 174.33-21.09L174.33-21.09Q174.86-21.23 174.73-21.53L174.73-21.53Q174.64-21.75 172.4-22.7 170.16-23.64 169.41-23.73L169.41-23.73Q169.15-23.77 169.1-23.64 169.06-23.51 168.84-22.28L168.84-22.28Q168.44-19.69 167.48-16.94 166.51-14.19 165.89-13.8L165.89-13.8Q165.37-13.45 164.71-15.25L164.71-15.25Q163.74-17.97 163.04-23.73L163.04-23.73Q162.99-24.08 162.91-24.7L162.91-24.7Q162.77-25.58 162.75-25.93 162.73-26.28 162.84-26.7 162.95-27.11 163.23-27.2 163.52-27.29 164.18-27.42 164.84-27.55 165.72-27.55 166.6-27.55 168.09-27.55L168.09-27.55Q169.32-27.55 170.02-27.55L170.02-27.55Q175.47-27.6 176.37-27.66 177.28-27.73 177.36-28.13 177.45-28.52 175.83-30.08 174.2-31.64 173.28-31.95L173.28-31.95Q172.84-32.12 172.71-33.09L172.71-33.09Q172.49-34.54 171.04-35.51 169.58-36.47 167.17-36.74L167.17-36.74Q164.58-37 165.15-36.34L165.15-36.34Q165.28-36.21 165.59-35.99L165.59-35.99Q166.6-35.33 167.72-34.15 168.84-32.96 169.41-31.99L169.41-31.99Q169.85-31.25 170.6-31.07L170.6-31.07Q171.96-30.85 170.95-29.62L170.95-29.62Q170.51-29 169.96-28.89 169.41-28.78 166.64-28.78L166.64-28.78Q166.29-28.78 165.67-28.78L165.67-28.78Q163.34-28.78 162.91-29.14L162.91-29.14Q162.51-29.49 162.51-31.55L162.51-31.55Q162.51-31.64 162.51-31.82L162.51-31.82Q162.51-32.34 162.51-32.65L162.51-32.65Q162.51-35.11 162.6-35.66 162.69-36.21 163.13-36.52L163.13-36.52Q164.05-37.13 162.25-37.44L162.25-37.44Q161.37-37.62 159.92-37.71L159.92-37.71Q159.79-37.71 159.52-37.75L159.52-37.75Q158.64-37.84 158.47-37.44L158.47-37.44Q158.25-36.96 158.42-33.18L158.42-33.18Q158.47-32.26 158.51-31.73L158.51-31.73Q158.51-31.46 158.55-30.98L158.55-30.98Q158.64-29.31 158.05-29.05 157.46-28.78 153.68-28.78L153.68-28.78Q152.58-28.78 151.92-28.78L151.92-28.78Q147.57-28.83 146.56-28.96 145.55-29.09 143.83-29.79L143.83-29.79Q143.61-29.88 143.22-30.06L143.22-30.06Q141.81-30.67 141.57-30.61 141.33-30.54 141.42-29.58L141.42-29.58Q141.46-29.36 141.46-29.22L141.46-29.22Q141.59-27.77 141.59-21.27 141.59-14.77 141.46-13.01L141.46-13.01Q140.84-3.74 137.72 2.29L137.72 2.29Q137.11 3.6 137.15 3.74Z" transform="translate(-2.443469285964966, 37.930870056152344)"></path></g> <!----> <!----> <!----> <!----> <!----> <!----> <!----></g></g> <g data-gra="path-slogan" fill-rule="" class="tp-slogan iconsvg-slogansvg" fill="#333" transform="translate(5,47.77210998535156)"><rect x="0" height="1" y="3.9750003814697266" width="22.632156372070312"></rect> <rect height="1" y="3.9750003814697266" width="22.632156372070312" x="142.39215087890625"></rect> <g transform="translate(25.632156372070312,0)"><g transform="scale(1)"><path d="M3.09-7.59L0.19-7.59L0.19-8.58L7.13-8.58L7.13-7.59L4.22-7.59L4.22 0L3.09 0L3.09-7.59ZM13.83 0L12.98-2.48L9.52-2.48L8.63 0L7.45 0L10.69-8.58L12-8.58L15.09 0L13.83 0ZM11.25-7.31L9.89-3.52L12.56-3.52L11.30-7.31L11.25-7.31ZM16.31-8.58L17.48-8.58L17.48 0L16.31 0L16.31-8.58ZM26.39-8.58L23.16-3.47L23.16 0L21.98 0L21.98-3.47L18.75-8.58L20.11-8.58L22.55-4.45L25.03-8.58L26.39-8.58ZM33.09-3.19L33.09-8.58L34.27-8.58L34.27-3.05Q34.13 0.05 30.75 0.14L30.75 0.14Q27.61 0.05 27.47-2.86L27.47-2.86L27.47-8.58L28.64-8.58L28.64-3.19Q28.69-0.84 30.80-0.80L30.80-0.80Q33.09-0.84 33.09-3.19L33.09-3.19ZM41.72 0L40.88-2.48L37.41-2.48L36.52 0L35.34 0L38.58-8.58L39.89-8.58L42.98 0L41.72 0ZM39.14-7.31L37.78-3.52L40.45-3.52L39.19-7.31L39.14-7.31ZM45.42-8.58L49.73-1.64L49.73-8.58L50.86-8.58L50.86 0L49.55 0L45.19-6.94L45.14-6.94L45.14 0L44.02 0L44.02-8.58L45.42-8.58ZM59.48 0L56.02 0L56.02-8.58L59.53-8.58Q63-8.39 63.14-4.41L63.14-4.41Q62.95-0.09 59.48 0L59.48 0ZM59.34-7.64L57.19-7.64L57.19-0.98L59.44-0.98Q61.88-1.13 61.97-4.31L61.97-4.31Q61.92-7.55 59.34-7.64L59.34-7.64ZM70.27 0L69.42-2.48L65.95-2.48L65.06 0L63.89 0L67.13-8.58L68.44-8.58L71.53 0L70.27 0ZM67.69-7.31L66.33-3.52L69-3.52L67.73-7.31L67.69-7.31ZM79.73-6.05L79.73-6.05L78.61-6.05Q78.19-7.78 76.22-7.83L76.22-7.83Q73.50-7.69 73.41-4.36L73.41-4.36Q73.41-0.80 76.27-0.80L76.27-0.80Q78.23-0.84 78.70-3.19L78.70-3.19L79.83-3.19Q79.31 0.05 76.03 0.14L76.03 0.14Q72.28 0 72.19-4.31L72.19-4.31Q72.38-8.63 76.22-8.81L76.22-8.81Q79.27-8.72 79.73-6.05ZM82.36-5.06L86.86-5.06L86.86-8.58L88.03-8.58L88.03 0L86.86 0L86.86-3.98L82.36-3.98L82.36 0L81.19 0L81.19-8.58L82.36-8.58L82.36-5.06ZM91.13-1.03L96.28-1.03L96.28 0L89.95 0L89.95-8.58L96.19-8.58L96.19-7.59L91.13-7.59L91.13-4.92L95.81-4.92L95.81-3.89L91.13-3.89L91.13-1.03ZM99.19-8.58L103.50-1.64L103.50-8.58L104.63-8.58L104.63 0L103.31 0L98.95-6.94L98.91-6.94L98.91 0L97.78 0L97.78-8.58L99.19-8.58ZM112.83-3.61L110.20-3.61L110.20-4.59L113.95-4.59L113.95 0L113.20 0L112.92-1.08Q111.94 0.09 110.11 0.14L110.11 0.14Q108.38 0.14 107.44-0.75L107.44-0.75Q106.03-2.06 106.08-4.36L106.08-4.36Q106.41-8.63 110.16-8.81L110.16-8.81Q113.34-8.63 113.81-6L113.81-6L112.69-6Q112.22-7.78 110.11-7.83L110.11-7.83Q107.44-7.64 107.30-4.31L107.30-4.31Q107.30-0.75 110.16-0.75L110.16-0.75Q111.19-0.75 111.94-1.31L111.94-1.31Q112.88-2.06 112.83-3.61L112.83-3.61Z" transform="translate(-0.1875, 8.8125)"></path></g></g></g></g></g><defs v-gra="od"></defs></svg>